<?xml version="1.0" encoding="UTF-8"?>
<svg version="1.1" xmlns="http://www.w3.org/2000/svg" width="1024" height="1536">
<path d="M0 0 C337.92 0 675.84 0 1024 0 C1024 506.88 1024 1013.76 1024 1536 C686.08 1536 348.16 1536 0 1536 C0 1029.12 0 522.24 0 0 Z " fill="#010101" transform="translate(0,0)"/>
<path d="M0 0 C0.89630257 -0.00367669 1.79260514 -0.00735338 2.71606839 -0.01114148 C5.71421137 -0.02213887 8.71231964 -0.0260155 11.71047974 -0.02983093 C13.86271778 -0.03609872 16.01495475 -0.0427458 18.16719055 -0.04974365 C25.23255667 -0.07075464 32.29792292 -0.08114553 39.36331177 -0.09111023 C41.80040625 -0.09515935 44.23750062 -0.09927632 46.67459488 -0.10346031 C58.12966766 -0.12250806 69.58473403 -0.13673813 81.0398196 -0.14507228 C94.23677353 -0.15483356 107.43355924 -0.18112599 120.63045394 -0.22157317 C130.84645312 -0.25180292 141.06240426 -0.26654779 151.27844727 -0.26985329 C157.37221951 -0.27219656 163.46581196 -0.2810623 169.55953598 -0.30631447 C175.30025857 -0.32971932 181.04068457 -0.3337787 186.78144264 -0.32355309 C188.87751188 -0.32306057 190.97359635 -0.32929606 193.06962013 -0.34310913 C214.2782855 -0.47494841 232.80304429 2.5192259 248.72268677 17.84638977 C249.84803833 18.98527649 249.84803833 18.98527649 250.99612427 20.14717102 C251.70510864 20.83424133 252.41409302 21.52131165 253.14456177 22.22920227 C261.98736951 31.35999418 266.60377536 42.79897013 268.99612427 55.14717102 C269.16870129 55.85240245 269.34127831 56.55763388 269.51908493 57.28423595 C270.14689028 61.05198803 270.14075452 64.76753352 270.13656616 68.57522583 C270.14102285 69.8448941 270.14102285 69.8448941 270.14556956 71.14021224 C270.1542386 73.97563106 270.15576333 76.81100757 270.15725708 79.6464386 C270.16188676 81.68030385 270.16691162 83.71416824 270.17230225 85.74803162 C270.18541932 91.27549274 270.1918706 96.80294171 270.1963129 102.33041596 C270.19924653 105.7884724 270.20335203 109.24652554 270.20781708 112.70458031 C270.22149411 123.53708913 270.2311581 134.36959039 270.23501897 145.20210725 C270.2394915 157.68080674 270.25700113 170.15939624 270.28601956 182.6380623 C270.30769744 192.2977835 270.31772661 201.95747391 270.31906009 211.61721915 C270.32010433 217.37897865 270.32592998 223.14063479 270.3438797 228.90236855 C270.36046472 234.33197128 270.36246565 239.76139416 270.35374069 245.19101334 C270.3529757 247.17258501 270.3572411 249.15416677 270.36719894 251.13571358 C270.43510649 265.50396726 270.40971663 280.67338224 263.24612427 293.58467102 C262.72115356 294.57757141 262.72115356 294.57757141 262.18557739 295.5905304 C259.31007919 300.88914282 256.05456599 305.67570204 251.99612427 310.14717102 C251.39284302 310.83037415 250.78956177 311.51357727 250.16799927 312.21748352 C239.4549335 323.6708831 224.32451354 331.08392821 208.66082621 332.33346426 C206.30899493 332.40439635 203.96452886 332.41885162 201.61166382 332.40786743 C200.72278308 332.41169298 199.83390234 332.41551853 198.91808581 332.41946 C195.96910183 332.42969678 193.02031596 332.42581569 190.07131958 332.42182922 C187.94480206 332.42618092 185.81828611 332.43136559 183.69177246 332.43731689 C177.93539208 332.45067033 172.17907751 332.45128953 166.42268467 332.4487536 C161.60693104 332.44768119 156.79119058 332.45257425 151.97543979 332.45735902 C140.60732453 332.46844203 129.23924231 332.46889869 117.87112427 332.46284485 C106.16844417 332.45680834 94.46588441 332.46911071 82.76322484 332.49041492 C72.69409016 332.50806705 62.62499364 332.5140265 52.55584407 332.51077718 C46.55166395 332.5089696 40.54756964 332.5115477 34.54340363 332.52549171 C28.89294355 332.53812391 23.24267009 332.53607511 17.59221268 332.52308083 C15.52756053 332.52072704 13.46289503 332.52340637 11.39825821 332.53170395 C-11.32673362 332.61639241 -31.18374546 328.69256013 -48.25387573 312.39717102 C-65.29895991 294.54170249 -68.4673138 273.94896647 -68.40792847 250.3507843 C-68.4136418 248.28603244 -68.42060976 246.22128373 -68.4287262 244.15653992 C-68.44656647 238.58617826 -68.44550646 233.01597492 -68.43978381 227.44559336 C-68.43667863 222.7789412 -68.44279915 218.11231886 -68.44882256 213.44567096 C-68.46283627 202.42833941 -68.46133286 191.41108546 -68.44992065 180.39375305 C-68.4384431 169.06361933 -68.45251639 157.73372242 -68.47931713 146.40361989 C-68.50153556 136.64179266 -68.50809767 126.88003943 -68.50224072 117.11818874 C-68.49888457 111.30289272 -68.50119652 105.48774843 -68.51849174 99.67247391 C-68.53405697 94.20082621 -68.52989981 88.72952702 -68.5111866 83.25789261 C-68.50752708 81.26180585 -68.51053119 79.26569271 -68.52107239 77.26963043 C-68.63186361 54.53680274 -64.03897819 35.56160057 -47.69137573 18.77217102 C-34.26639835 6.03565402 -18.37625729 -0.00407439 0 0 Z " fill="#010101" transform="translate(411.0038757324219,447.8528289794922)"/>
<path d="M0 0 C0.89630257 -0.00367669 1.79260514 -0.00735338 2.71606839 -0.01114148 C5.71421137 -0.02213887 8.71231964 -0.0260155 11.71047974 -0.02983093 C13.86271778 -0.03609872 16.01495475 -0.0427458 18.16719055 -0.04974365 C25.23255667 -0.07075464 32.29792292 -0.08114553 39.36331177 -0.09111023 C41.80040625 -0.09515935 44.23750062 -0.09927632 46.67459488 -0.10346031 C58.12966766 -0.12250806 69.58473403 -0.13673813 81.0398196 -0.14507228 C94.23677353 -0.15483356 107.43355924 -0.18112599 120.63045394 -0.22157317 C130.84645312 -0.25180292 141.06240426 -0.26654779 151.27844727 -0.26985329 C157.37221951 -0.27219656 163.46581196 -0.2810623 169.55953598 -0.30631447 C175.30025857 -0.32971932 181.04068457 -0.3337787 186.78144264 -0.32355309 C188.87751188 -0.32306057 190.97359635 -0.32929606 193.06962013 -0.34310913 C214.2782855 -0.47494841 232.80304429 2.5192259 248.72268677 17.84638977 C249.84803833 18.98527649 249.84803833 18.98527649 250.99612427 20.14717102 C251.70510864 20.83424133 252.41409302 21.52131165 253.14456177 22.22920227 C261.98736951 31.35999418 266.60377536 42.79897013 268.99612427 55.14717102 C269.16870129 55.85240245 269.34127831 56.55763388 269.51908493 57.28423595 C270.14689028 61.05198803 270.14075452 64.76753352 270.13656616 68.57522583 C270.14102285 69.8448941 270.14102285 69.8448941 270.14556956 71.14021224 C270.1542386 73.97563106 270.15576333 76.81100757 270.15725708 79.6464386 C270.16188676 81.68030385 270.16691162 83.71416824 270.17230225 85.74803162 C270.18541932 91.27549274 270.1918706 96.80294171 270.1963129 102.33041596 C270.19924653 105.7884724 270.20335203 109.24652554 270.20781708 112.70458031 C270.22149411 123.53708913 270.2311581 134.36959039 270.23501897 145.20210725 C270.2394915 157.68080674 270.25700113 170.15939624 270.28601956 182.6380623 C270.30769744 192.2977835 270.31772661 201.95747391 270.31906009 211.61721915 C270.32010433 217.37897865 270.32592998 223.14063479 270.3438797 228.90236855 C270.36046472 234.33197128 270.36246565 239.76139416 270.35374069 245.19101334 C270.3529757 247.17258501 270.3572411 249.15416677 270.36719894 251.13571358 C270.43510649 265.50396726 270.40971663 280.67338224 263.24612427 293.58467102 C262.72115356 294.57757141 262.72115356 294.57757141 262.18557739 295.5905304 C259.31007919 300.88914282 256.05456599 305.67570204 251.99612427 310.14717102 C251.39284302 310.83037415 250.78956177 311.51357727 250.16799927 312.21748352 C239.4549335 323.6708831 224.32451354 331.08392821 208.66082621 332.33346426 C206.30899493 332.40439635 203.96452886 332.41885162 201.61166382 332.40786743 C200.72278308 332.41169298 199.83390234 332.41551853 198.91808581 332.41946 C195.96910183 332.42969678 193.02031596 332.42581569 190.07131958 332.42182922 C187.94480206 332.42618092 185.81828611 332.43136559 183.69177246 332.43731689 C177.93539208 332.45067033 172.17907751 332.45128953 166.42268467 332.4487536 C161.60693104 332.44768119 156.79119058 332.45257425 151.97543979 332.45735902 C140.60732453 332.46844203 129.23924231 332.46889869 117.87112427 332.46284485 C106.16844417 332.45680834 94.46588441 332.46911071 82.76322484 332.49041492 C72.69409016 332.50806705 62.62499364 332.5140265 52.55584407 332.51077718 C46.55166395 332.5089696 40.54756964 332.5115477 34.54340363 332.52549171 C28.89294355 332.53812391 23.24267009 332.53607511 17.59221268 332.52308083 C15.52756053 332.52072704 13.46289503 332.52340637 11.39825821 332.53170395 C-11.32673362 332.61639241 -31.18374546 328.69256013 -48.25387573 312.39717102 C-65.29895991 294.54170249 -68.4673138 273.94896647 -68.40792847 250.3507843 C-68.4136418 248.28603244 -68.42060976 246.22128373 -68.4287262 244.15653992 C-68.44656647 238.58617826 -68.44550646 233.01597492 -68.43978381 227.44559336 C-68.43667863 222.7789412 -68.44279915 218.11231886 -68.44882256 213.44567096 C-68.46283627 202.42833941 -68.46133286 191.41108546 -68.44992065 180.39375305 C-68.4384431 169.06361933 -68.45251639 157.73372242 -68.47931713 146.40361989 C-68.50153556 136.64179266 -68.50809767 126.88003943 -68.50224072 117.11818874 C-68.49888457 111.30289272 -68.50119652 105.48774843 -68.51849174 99.67247391 C-68.53405697 94.20082621 -68.52989981 88.72952702 -68.5111866 83.25789261 C-68.50752708 81.26180585 -68.51053119 79.26569271 -68.52107239 77.26963043 C-68.63186361 54.53680274 -64.03897819 35.56160057 -47.69137573 18.77217102 C-34.26639835 6.03565402 -18.37625729 -0.00407439 0 0 Z M-29.00387573 36.14717102 C-29.71414917 36.81748352 -30.42442261 37.48779602 -31.15621948 38.17842102 C-40.01870382 47.28846078 -43.15816556 58.0418692 -43.14431763 70.48825073 C-43.14728875 71.32526785 -43.15025987 72.16228497 -43.15332103 73.02466625 C-43.16198893 75.8279625 -43.16351468 78.63121595 -43.16500854 81.43452454 C-43.16963816 83.4453236 -43.17466302 85.45612178 -43.18005371 87.46691895 C-43.1931681 92.93006395 -43.1996211 98.39319667 -43.20406437 103.85635495 C-43.20699738 107.27216777 -43.21110268 110.68797724 -43.21556854 114.10378838 C-43.22924255 124.79853346 -43.238909 135.49327089 -43.24277043 146.1880241 C-43.24724745 158.51904282 -43.26477923 170.84995048 -43.29377103 183.18093544 C-43.31541908 192.72084992 -43.32547643 202.26073323 -43.32681155 211.80067199 C-43.32785758 217.49411696 -43.33372202 223.18745752 -43.35163116 228.88087654 C-43.36816525 234.24152242 -43.37024146 239.60198603 -43.36149216 244.96264839 C-43.36072457 246.92332448 -43.36502755 248.88401058 -43.37495041 250.84466171 C-43.45619843 267.90793611 -41.95406235 281.68502329 -30.00387573 294.83467102 C-21.19811987 303.28039598 -10.40032035 307.30025383 1.64801025 307.28761292 C2.53050316 307.29058404 3.41299606 307.29355516 4.32223117 307.29661632 C7.28531578 307.30530182 10.24835997 307.30681145 13.2114563 307.30830383 C15.33372585 307.31293218 17.45599458 307.31795686 19.57826233 307.323349 C25.3491737 307.33647502 31.12007344 307.34291858 36.89099741 307.34735966 C40.4972477 307.35029058 44.10349481 307.35439547 47.7097435 307.35886383 C58.99502108 307.37254046 70.28029138 307.38220581 81.56557667 307.38606572 C94.58825908 307.39054439 107.61083641 307.40808276 120.63348687 307.43706632 C130.70158322 307.45869529 140.76965005 307.46877069 150.83776939 307.47010684 C156.84974383 307.47115416 162.86161953 307.47704646 168.87356949 307.49492645 C174.53213465 307.51142763 180.19052707 307.5135526 185.84910774 307.50478745 C187.92188925 307.50401812 189.99468012 307.50834592 192.06743813 307.5182457 C194.90594147 307.53100366 197.74383653 307.52506743 200.58233643 307.5146637 C201.80105476 307.5267483 201.80105476 307.5267483 203.04439366 307.53907704 C214.77418146 307.43912434 223.77636824 303.01835928 232.22659302 295.04170227 C241.33343709 285.38810583 245.32527071 274.49078401 245.25009155 261.34921265 C245.25321153 260.49934845 245.25633152 259.64948425 245.25954604 258.77386659 C245.26748055 255.94518582 245.26122019 253.11672228 245.25491333 250.28804016 C245.25762523 248.25222651 245.26118728 246.21641384 245.26553345 244.18060303 C245.27463657 238.66409492 245.27112158 233.14766178 245.26477528 227.63115239 C245.25970386 221.85112513 245.26440997 216.07110418 245.26754761 210.29107666 C245.27118421 200.58432363 245.26639646 190.87760106 245.25686646 181.17085266 C245.24598558 169.95892109 245.24950608 158.74706228 245.26051927 147.53513247 C245.26960449 137.89923515 245.27087127 128.26335969 245.26564193 118.62745947 C245.26252864 112.87661798 245.26209522 107.12581066 245.2687149 101.37497139 C245.27450558 95.96671085 245.27045992 90.55854382 245.25892639 85.15029335 C245.25628889 83.16901047 245.25702931 81.18771967 245.26145172 79.20643997 C245.26694467 76.49489254 245.26002775 73.78364175 245.25009155 71.07211304 C245.254553 70.29446832 245.25901444 69.51682361 245.26361108 68.7156139 C245.17833095 56.65600374 241.05749357 45.72753558 232.81253052 36.77217102 C219.57535997 24.92988511 205.9576233 24.70223424 189.14724731 24.74311829 C187.02895753 24.73741014 184.91067082 24.73044416 182.79238892 24.72232056 C177.05877541 24.70442169 171.32531522 24.70555161 165.5916822 24.71126294 C160.79571113 24.71436003 155.9997693 24.70825643 151.20380241 24.7022242 C139.8836563 24.68819082 128.56358569 24.68972993 117.24343872 24.7011261 C105.58727787 24.71260166 93.93134727 24.69853823 82.27521676 24.67172962 C72.24770229 24.6495351 62.22025989 24.64294384 52.19272262 24.64880604 C46.21258487 24.65216836 40.23259461 24.64980889 34.25247765 24.63255501 C28.62576872 24.61702856 22.99939934 24.62110468 17.37270355 24.63986015 C15.31569544 24.6435305 13.25866186 24.6404833 11.20167732 24.62997437 C-4.02889077 24.55814484 -17.38025272 25.03084086 -29.00387573 36.14717102 Z " fill="#FBFBFB" transform="translate(411.0038757324219,447.8528289794922)"/>
<path d="M0 0 C9.57 0 19.14 0 29 0 C38.65402678 22.42952223 48.27497374 44.86514299 57.54394531 67.45703125 C59.9944501 73.41976189 62.46275566 79.37512154 64.92950439 85.33114624 C66.21928902 88.44575111 67.50804416 91.56078158 68.796875 94.67578125 C69.43641113 96.2213269 69.43641113 96.2213269 70.08886719 97.7980957 C70.38954102 98.52472412 70.69021484 99.25135254 71 100 C85.60809349 66.92991902 99.28562772 33.44807515 113 0 C122.57 0 132.14 0 142 0 C142 43.89 142 87.78 142 133 C134.74 133 127.48 133 120 133 C119.67 102.31 119.34 71.62 119 40 C113.39 53.86 107.78 67.72 102 82 C99.09040272 89.12805728 96.17883569 96.25489945 93.25 103.375 C92.59886997 104.96090122 91.94782937 106.54683917 91.296875 108.1328125 C87.88876206 116.43209095 84.45913752 124.72183501 81 133 C74.73 133 68.46 133 62 133 C56.80933175 123.20338305 52.78370348 112.9504653 48.625 102.6875 C47.83242852 100.73953616 47.03953717 98.79170243 46.24633789 96.84399414 C44.22287323 91.87249724 42.20427566 86.89903967 40.18695068 81.92504883 C38.66158163 78.16602243 37.13299 74.40831138 35.60418701 70.65068054 C33.88051403 66.41354008 32.15879042 62.17560881 30.4375 57.9375 C30.11444885 57.14242035 29.79139771 56.3473407 29.45855713 55.52816772 C28.55334607 53.29915309 27.64947336 51.06960116 26.74609375 48.83984375 C26.48029007 48.18566467 26.21448639 47.5314856 25.94062805 46.85748291 C24.88750302 44.2544704 23.8883198 41.66495941 23 39 C22.67 70.02 22.34 101.04 22 133 C14.74 133 7.48 133 0 133 C0 89.11 0 45.22 0 0 Z " fill="#FDFDFD" transform="translate(109,864)"/>
<path d="M0 0 C6.93 0 13.86 0 21 0 C21 43.89 21 87.78 21 133 C14.07 133 7.14 133 0 133 C-0.495 127.06 -0.495 127.06 -1 121 C-1.474375 121.70125 -1.94875 122.4025 -2.4375 123.125 C-9.34740864 130.87758043 -17.98343543 134.6882546 -28.25 135.31640625 C-41.12460907 135.79429957 -51.1056347 133.69441036 -61 125 C-61.60585938 124.49855469 -62.21171875 123.99710938 -62.8359375 123.48046875 C-71.94872919 115.30283254 -76.2302329 102.87180486 -77.1640625 90.89599609 C-78.0308192 74.41678424 -75.74452628 58.80823448 -65.046875 45.5859375 C-57.33433043 37.4786564 -48.02057393 32.2064291 -36.73046875 31.49609375 C-34.88324519 31.45159425 -33.03525319 31.4326781 -31.1875 31.4375 C-30.22134766 31.43991699 -29.25519531 31.44233398 -28.25976562 31.44482422 C-18.42073164 31.69791302 -11.53901012 34.46252727 -4.25 41.25 C-2 44 -2 44 -2 46 C-1.34 46 -0.68 46 0 46 C0 30.82 0 15.64 0 0 Z " fill="#FCFCFC" transform="translate(502,864)"/>
<path d="M0 0 C3.14588913 1.67958487 5.26554725 3.99847353 7.375 6.875 C8.7129009 11.42386305 8.46824073 14.89324917 6.625 19.25 C3.84492453 23.65096753 0.16904319 27.33102655 -3.3671875 31.125 C-5.78596025 33.76627113 -8.06469283 36.46305089 -10.3125 39.25 C-13.94760956 43.75367556 -17.69557347 48.13988302 -21.5 52.5 C-25.23418958 56.78202781 -28.92459276 61.08332047 -32.5 65.5 C-36.07541526 69.91668944 -39.76599348 74.21780385 -43.5 78.5 C-47.99747977 83.65851311 -52.38995452 88.88157094 -56.69921875 94.19921875 C-60.37772387 98.67712736 -64.17039656 103.05599295 -67.94921875 107.44921875 C-74.19427321 114.71031003 -80.3963115 122.00553429 -86.4375 129.4375 C-90.39017006 134.29525372 -94.45548069 139.04682767 -98.54296875 143.79077148 C-101.72322223 147.48934513 -104.85225193 151.22172616 -107.9375 155 C-108.65421875 155.8765625 -109.3709375 156.753125 -110.109375 157.65625 C-111.24112238 159.05924263 -112.36033874 160.47270243 -113.453125 161.90625 C-117.0953263 166.60883902 -120.52758807 168.68532939 -126.4375 169.4375 C-134.89107343 168.39934186 -138.41196751 163.59526587 -143.40625 157.20703125 C-146.28996896 153.56485782 -149.4440722 150.19478679 -152.625 146.8125 C-156.60333141 142.57266067 -160.53461413 138.31460926 -164.3359375 133.9140625 C-167.83292933 129.891701 -171.42859365 125.95620434 -175 122 C-177.24739033 119.50376368 -179.49391847 117.00677141 -181.73828125 114.5078125 C-183.27048451 112.80889283 -184.80978608 111.11635284 -186.35546875 109.4296875 C-188.59630236 106.97490495 -190.80464452 104.49546961 -193 102 C-193.62648438 101.31035156 -194.25296875 100.62070312 -194.8984375 99.91015625 C-198.40989646 95.74751124 -199.87134229 92.62223927 -199.453125 87.109375 C-198.43674228 82.37793819 -196.11873695 79.78820104 -192.25 77.0625 C-188.16477649 75.72694616 -185.01519106 75.54964581 -181 77 C-170.33229608 83.73984641 -161.76275498 96.03538323 -153.65258789 105.61401367 C-149.21866706 110.81854922 -144.58004639 115.81486056 -139.8840332 120.78295898 C-136.21757898 124.66602747 -132.68198535 128.61420818 -129.33203125 132.77734375 C-127.93299582 134.33810682 -127.93299582 134.33810682 -125 134 C-123.00044879 131.94340454 -121.18789689 129.8993995 -119.375 127.6875 C-118.83866943 127.0473999 -118.30233887 126.4072998 -117.74975586 125.74780273 C-113.92620311 121.17129018 -110.16784988 116.54078052 -106.41015625 111.91015625 C-102.94544534 107.72667225 -99.36873456 103.643438 -95.79931641 99.54931641 C-91.87378575 95.03627576 -88.0636817 90.44351977 -84.296875 85.796875 C-79.12465241 79.4987264 -73.75923765 73.36109183 -68.43847656 67.18847656 C-63.41838502 61.36164087 -58.40626351 55.53765352 -53.5625 49.5625 C-49.41939009 44.45692535 -45.1176955 39.50199947 -40.79711914 34.54711914 C-37.63534162 30.91262149 -34.53149794 27.24479157 -31.5 23.5 C-27.80297376 18.954027 -24.05159954 14.45866613 -20.25 10 C-19.70666016 9.35224609 -19.16332031 8.70449219 -18.60351562 8.03710938 C-13.25141759 1.80286972 -8.47219856 -1.61091099 0 0 Z " fill="#FCFCFC" transform="translate(613,520)"/>
<path d="M0 0 C1.49273438 -0.0309375 1.49273438 -0.0309375 3.015625 -0.0625 C14.03374007 -0.12003585 23.49280309 2.52037946 31.78515625 9.96484375 C41.30986922 19.85355849 41.44012293 31.57540589 41.265625 44.51171875 C41.25814864 46.15508836 41.25246232 47.79846698 41.24847412 49.44184875 C41.23332734 53.7311235 41.19414281 58.01984153 41.1496582 62.30889893 C41.10846649 66.69999667 41.09041249 71.0911859 41.0703125 75.48242188 C41.02763545 84.07189638 40.95737811 92.66081443 40.875 101.25 C33.945 101.25 27.015 101.25 19.875 101.25 C19.545 97.62 19.215 93.99 18.875 90.25 C17.92625 91.301875 16.9775 92.35375 16 93.4375 C8.55490629 100.91291996 0.03608497 103.46181604 -10.25 103.5 C-21.00772606 103.48404406 -28.9864795 101.65208825 -37.125 94.25 C-43.80901696 87.38533393 -44.65721593 79.80442229 -44.61450195 70.61694336 C-44.32632497 62.54532778 -41.8149054 56.51563788 -35.9375 50.875 C-28.33306104 45.22810746 -19.79935565 43.56981465 -10.5625 42.625 C-9.52416016 42.50729248 -8.48582031 42.38958496 -7.41601562 42.26831055 C-5.3194812 42.03143316 -3.22230769 41.80013888 -1.12451172 41.57470703 C2.460555 41.18661174 6.04054207 40.76193846 9.62084961 40.33251953 C12.70459359 39.96312488 15.78972053 39.60631624 18.875 39.25 C18.57454273 30.00927272 18.57454273 30.00927272 13.875 22.25 C9.76581323 19.14760128 6.07655714 18.70311775 1.0625 18.75 C0.35125977 18.75644531 -0.35998047 18.76289062 -1.09277344 18.76953125 C-6.04268283 18.94201778 -9.69610685 19.57726566 -13.640625 22.60546875 C-16.27777151 25.52714949 -17.64621413 28.61465141 -19.125 32.25 C-26.07523264 31.60346673 -32.50677303 29.38972752 -39.125 27.25 C-38.02598362 18.4452366 -32.99768119 12.31334087 -26.27734375 6.75390625 C-17.9297715 0.92121057 -9.90212058 0.05013732 0 0 Z " fill="#FCFCFC" transform="translate(681.125,895.75)"/>
<path d="M0 0 C7.26 0 14.52 0 22 0 C22.33 24.09 22.66 48.18 23 73 C26.63 69.04 30.26 65.08 34 61 C38.25 56.75 38.25 56.75 40.18359375 54.84375 C41.96742375 53.03306664 43.64787819 51.17041476 45.3125 49.25 C45.9003125 48.60546875 46.488125 47.9609375 47.09375 47.296875 C49.13500939 44.94389 49.13500939 44.94389 50.96875 41.828125 C53.4890007 38.08337668 55.8500583 34.98002549 60 33 C68.55251568 31.50090736 77.39418212 32.25918354 86 33 C82.45620298 37.86570786 78.81958866 42.43554683 74.6875 46.8125 C70.33735404 51.47046373 66.26478745 56.28252108 62.27734375 61.2578125 C59.00799844 65.19448558 55.50082379 68.8887973 51.96875 72.58984375 C49.49694187 75.4578689 49.49694187 75.4578689 49 79 C50.65726864 81.72466281 50.65726864 81.72466281 53.125 84.5625 C57.48386694 89.94574358 61.45577182 95.49726577 65.3125 101.25 C70.2250704 108.55163559 75.38478725 115.5929266 80.86254883 122.48144531 C81.63248169 123.46129395 81.63248169 123.46129395 82.41796875 124.4609375 C83.09508911 125.30857666 83.09508911 125.30857666 83.78588867 126.17333984 C85.22775085 128.34265671 86.10259609 130.56146488 87 133 C64.18478678 134.93622743 64.18478678 134.93622743 57.76171875 131.03125 C55.913374 128.47586853 54.45598124 125.93418757 53.10107422 123.08984375 C50.78854837 118.70065944 47.7000971 114.77301871 44.8125 110.75 C43.65030329 109.07954277 42.49008524 107.40770686 41.33203125 105.734375 C38.68870111 101.93366983 35.93081087 98.24440299 33.07299805 94.60253906 C32 93 32 93 32 91 C25.29859879 96.02266396 25.29859879 96.02266396 22.45410156 103.59692383 C22.4132018 104.96651246 22.39304369 106.3368342 22.390625 107.70703125 C22.37408875 108.43242599 22.35755249 109.15782074 22.34051514 109.90519714 C22.29217523 112.20771873 22.27069715 114.50958066 22.25 116.8125 C22.22182832 118.37959023 22.1918992 119.94664992 22.16015625 121.51367188 C22.0831288 125.34274709 22.04248736 129.16976482 22 133 C14.74 133 7.48 133 0 133 C0 89.11 0 45.22 0 0 Z " fill="#FAFAFA" transform="translate(836,864)"/>
<path d="M0 0 C0.71285156 0.42410156 1.42570312 0.84820313 2.16015625 1.28515625 C9.29610433 6.07357749 13.6875156 12.78108676 16 21 C16.17282941 23.59182711 16.25405262 26.07007691 16.22705078 28.65771484 C16.22734283 29.39986237 16.22763489 30.14200989 16.22793579 30.90664673 C16.22655072 33.34153235 16.21102871 35.77610582 16.1953125 38.2109375 C16.19157944 39.90629916 16.18873385 41.60166299 16.18673706 43.29702759 C16.1791237 47.74564638 16.15949505 52.19413328 16.1373291 56.6427002 C16.11682107 61.18756324 16.10772476 65.73244771 16.09765625 70.27734375 C16.07624687 79.18496292 16.04108357 88.09244982 16 97 C8.74 97 1.48 97 -6 97 C-6.0093457 94.98197266 -6.01869141 92.96394531 -6.02832031 90.88476562 C-6.0621842 84.19506037 -6.11778498 77.50566054 -6.18390274 70.81620026 C-6.22330485 66.76286775 -6.25552863 62.70975011 -6.27099609 58.65625 C-6.28621104 54.73967978 -6.32074091 50.82370057 -6.36830902 46.90739441 C-6.38307328 45.41803646 -6.39103816 43.9285941 -6.39188385 42.43916321 C-6.39739811 31.12943114 -6.39739811 31.12943114 -11 21 C-17.75560717 15.51106917 -24.53472087 15.22845338 -33 16 C-38.84837113 17.67506538 -42.66351468 20.89714009 -46 26 C-48.48914429 33.40484742 -48.34827735 40.81741232 -48.4140625 48.5625 C-48.43280205 49.96355291 -48.45237748 51.36459486 -48.4727478 52.765625 C-48.52378108 56.42825827 -48.56355957 60.09092802 -48.60089111 63.75372314 C-48.64111286 67.50126962 -48.69212169 71.24866815 -48.7421875 74.99609375 C-48.83860513 82.3306347 -48.92211877 89.6652345 -49 97 C-56.59 97 -64.18 97 -72 97 C-72 64 -72 31 -72 -3 C-64.41 -3 -56.82 -3 -49 -3 C-48.67 0.63 -48.34 4.26 -48 8 C-46.72125 6.7625 -45.4425 5.525 -44.125 4.25 C-32.49460038 -5.87275522 -13.581583 -8.24137645 0 0 Z " fill="#FCFCFC" transform="translate(391,900)"/>
<path d="M0 0 C7.61930447 5.32818495 14.85052513 12.72350998 17 22 C14.25336296 22.86656998 11.5035757 23.71851786 8.75 24.5625 C7.97269531 24.80935547 7.19539062 25.05621094 6.39453125 25.31054688 C5.64042969 25.53935547 4.88632812 25.76816406 4.109375 26.00390625 C3.41811523 26.21861572 2.72685547 26.4333252 2.01464844 26.65454102 C-0.37435409 27.06419184 -1.75968739 26.92640748 -4 26 C-4.97685503 24.27422278 -5.94907081 22.54492102 -6.86328125 20.78515625 C-9.23557244 17.0595993 -12.93594876 15.35468375 -17 14 C-27.02741175 13.19243323 -27.02741175 13.19243323 -36 17 C-38.64876362 19.47217938 -38.97180687 20.80617222 -39.5 24.4375 C-39.01606399 27.88554406 -38.57319515 29.61834693 -35.8984375 31.88671875 C-29.93921779 35.3813229 -22.72008267 36.59957318 -16.0546875 38.18359375 C8.72728801 44.08373253 8.72728801 44.08373253 15 54 C19.04883504 61.25095553 19.12231078 69.63152789 17.0625 77.5625 C14.02878519 85.42193791 7.97724742 91.43461179 0.4375 95 C-7.07438774 98.10994439 -14.12377389 99.37020403 -22.1875 99.3125 C-23.01685059 99.30686035 -23.84620117 99.3012207 -24.70068359 99.29541016 C-37.00252383 99.05485142 -46.90524555 96.69290312 -56 88.11328125 C-60.65139781 83.18086149 -64 78.00299403 -64 71 C-61.25244513 70.30111323 -58.50268803 69.6156012 -55.75 68.9375 C-54.97269531 68.73833984 -54.19539062 68.53917969 -53.39453125 68.33398438 C-52.64042969 68.15029297 -51.88632812 67.96660156 -51.109375 67.77734375 C-50.41811523 67.60452881 -49.72685547 67.43171387 -49.01464844 67.25366211 C-46.71204116 66.96374343 -45.17541874 67.21107636 -43 68 C-41.98046875 69.70703125 -41.98046875 69.70703125 -41.1875 71.8125 C-39.04594121 76.55452304 -36.68420894 77.87081412 -32 80 C-25.56428952 82.14523683 -17.56179291 82.18786255 -11.375 79.25 C-8.56147816 77.55238978 -6.42978128 76.03828523 -5 73 C-4.44882416 69.29924793 -4.67415212 67.56045836 -6.5625 64.3125 C-11.94665253 59.20445785 -19.21846484 58.11064703 -26.25 56.5625 C-51.10467085 50.80600369 -51.10467085 50.80600369 -58.41015625 41.1328125 C-62.63040168 34.0839438 -62.84393432 26.62004612 -61.64453125 18.6328125 C-59.56691705 10.79644217 -54.02317715 4.37264294 -47.10546875 0.29296875 C-33.38341672 -6.08126425 -13.66986562 -7.19263085 0 0 Z " fill="#FCFCFC" transform="translate(802,900)"/>
<path d="M0 0 C34.98 0 69.96 0 106 0 C106 6.6 106 13.2 106 20 C92.14 20 78.28 20 64 20 C64 57.29 64 94.58 64 133 C56.41 133 48.82 133 41 133 C41 95.71 41 58.42 41 20 C27.47 20 13.94 20 0 20 C0 13.4 0 6.8 0 0 Z " fill="#FAFAFA" transform="translate(539,864)"/>
<path d="M0 0 C7.28982947 4.35751605 11.09169528 9.51095108 13.98828125 17.4765625 C16.36079988 28.46281996 15.89709861 41.65716169 10.33203125 51.53515625 C6.28028819 57.3547589 1.60208896 61.09929076 -5.26171875 63.0390625 C-13.4313098 64.07882863 -21.35404347 63.89645169 -28.26171875 59.0390625 C-34.86547497 53.44823303 -38.63746912 46.39356861 -39.48486328 37.76757812 C-40.22530395 25.91124289 -39.59253327 15.91741497 -33.13671875 5.6640625 C-24.11623076 -2.57203523 -11.43615683 -5.24055152 0 0 Z " fill="#010101" transform="translate(487.26171875,916.9609375)"/>
<path d="M0 0 C7.59 0 15.18 0 23 0 C23 33 23 66 23 100 C15.41 100 7.82 100 0 100 C0 67 0 34 0 0 Z " fill="#F8F8F8" transform="translate(274,897)"/>
<path d="M0 0 C0.08138426 2.87557703 0.14067851 5.74882262 0.1875 8.625 C0.21263672 9.43324219 0.23777344 10.24148438 0.26367188 11.07421875 C0.33833709 17.1967665 -0.63669587 21.30788834 -4.796875 26.046875 C-11.23802639 31.66355901 -16.95670896 33.51154774 -25.50390625 33.31640625 C-30.77514925 32.64822052 -34.53959515 30.31061974 -38.4375 26.8125 C-40.5920991 22.93422162 -41.20141452 19.42306289 -41 15 C-39.32697203 10.81743009 -36.70388537 8.49796921 -33 6 C-27.61362268 3.81519797 -22.09581987 3.18420922 -16.375 2.4375 C-14.50755994 2.18808164 -12.64036118 1.93684831 -10.7734375 1.68359375 C-9.54246338 1.52201782 -9.54246338 1.52201782 -8.28662109 1.35717773 C-5.47586121 0.9181278 -2.84705119 0 0 0 Z " fill="#020202" transform="translate(700,949)"/>
<path d="M0 0 C4.7031093 2.03088811 7.71789119 5.43578239 10 10 C10.54895595 15.70914192 9.62637093 18.56776886 6 23 C3.16403403 25.93725047 0.22380405 26.75672168 -3.83984375 27.12890625 C-8.820723 26.83167476 -12.69419034 24.42822932 -16 20.8125 C-17.43104847 16.78767619 -17.66985708 13.22009961 -17 9 C-13.26013156 1.52026312 -8.13045657 -1.20634823 0 0 Z " fill="#FAFAFA" transform="translate(290,856)"/>
</svg>
